<mxfile host="app.diagrams.net" modified="2024-06-04T18:17:48.344Z" agent="Mozilla/5.0 (Windows NT 10.0; Win64; x64) AppleWebKit/537.36 (KHTML, like Gecko) Chrome/125.0.0.0 Safari/537.36" etag="4WMb7LknnTFSjW81MM5O" version="24.4.13" type="device">
  <diagram name="Page-1" id="kf4Eoa28R7cADwCGyI65">
    <mxGraphModel dx="2577" dy="928" grid="1" gridSize="10" guides="1" tooltips="1" connect="1" arrows="1" fold="1" page="1" pageScale="1" pageWidth="827" pageHeight="1169" math="0" shadow="0">
      <root>
        <mxCell id="0" />
        <mxCell id="1" parent="0" />
        <mxCell id="Az40gwPf_GK8AemMMeNt-41" value="" style="shape=umlLifeline;perimeter=lifelinePerimeter;whiteSpace=wrap;html=1;container=1;dropTarget=0;collapsible=0;recursiveResize=0;outlineConnect=0;portConstraint=eastwest;newEdgeStyle={&quot;edgeStyle&quot;:&quot;elbowEdgeStyle&quot;,&quot;elbow&quot;:&quot;vertical&quot;,&quot;curved&quot;:0,&quot;rounded&quot;:0};participant=umlActor;" vertex="1" parent="1">
          <mxGeometry x="-10" y="10" width="20" height="990" as="geometry" />
        </mxCell>
        <mxCell id="Az40gwPf_GK8AemMMeNt-42" value="" style="html=1;points=[];perimeter=orthogonalPerimeter;outlineConnect=0;targetShapes=umlLifeline;portConstraint=eastwest;newEdgeStyle={&quot;edgeStyle&quot;:&quot;elbowEdgeStyle&quot;,&quot;elbow&quot;:&quot;vertical&quot;,&quot;curved&quot;:0,&quot;rounded&quot;:0};" vertex="1" parent="Az40gwPf_GK8AemMMeNt-41">
          <mxGeometry x="5" y="100" width="10" height="860" as="geometry" />
        </mxCell>
        <mxCell id="Az40gwPf_GK8AemMMeNt-44" value="" style="shape=umlLifeline;perimeter=lifelinePerimeter;whiteSpace=wrap;html=1;container=1;dropTarget=0;collapsible=0;recursiveResize=0;outlineConnect=0;portConstraint=eastwest;newEdgeStyle={&quot;edgeStyle&quot;:&quot;elbowEdgeStyle&quot;,&quot;elbow&quot;:&quot;vertical&quot;,&quot;curved&quot;:0,&quot;rounded&quot;:0};participant=umlControl;" vertex="1" parent="1">
          <mxGeometry x="160" y="10" width="40" height="990" as="geometry" />
        </mxCell>
        <mxCell id="Az40gwPf_GK8AemMMeNt-45" value="" style="html=1;points=[];perimeter=orthogonalPerimeter;outlineConnect=0;targetShapes=umlLifeline;portConstraint=eastwest;newEdgeStyle={&quot;edgeStyle&quot;:&quot;elbowEdgeStyle&quot;,&quot;elbow&quot;:&quot;vertical&quot;,&quot;curved&quot;:0,&quot;rounded&quot;:0};" vertex="1" parent="Az40gwPf_GK8AemMMeNt-44">
          <mxGeometry x="15" y="100" width="10" height="860" as="geometry" />
        </mxCell>
        <mxCell id="Az40gwPf_GK8AemMMeNt-46" value="" style="shape=umlLifeline;perimeter=lifelinePerimeter;whiteSpace=wrap;html=1;container=1;dropTarget=0;collapsible=0;recursiveResize=0;outlineConnect=0;portConstraint=eastwest;newEdgeStyle={&quot;edgeStyle&quot;:&quot;elbowEdgeStyle&quot;,&quot;elbow&quot;:&quot;vertical&quot;,&quot;curved&quot;:0,&quot;rounded&quot;:0};participant=umlControl;" vertex="1" parent="1">
          <mxGeometry x="340" y="10" width="40" height="975" as="geometry" />
        </mxCell>
        <mxCell id="Az40gwPf_GK8AemMMeNt-47" value="" style="shape=umlLifeline;perimeter=lifelinePerimeter;whiteSpace=wrap;html=1;container=1;dropTarget=0;collapsible=0;recursiveResize=0;outlineConnect=0;portConstraint=eastwest;newEdgeStyle={&quot;edgeStyle&quot;:&quot;elbowEdgeStyle&quot;,&quot;elbow&quot;:&quot;vertical&quot;,&quot;curved&quot;:0,&quot;rounded&quot;:0};participant=umlControl;" vertex="1" parent="1">
          <mxGeometry x="500" y="10" width="40" height="990" as="geometry" />
        </mxCell>
        <mxCell id="Az40gwPf_GK8AemMMeNt-48" value="" style="html=1;points=[];perimeter=orthogonalPerimeter;outlineConnect=0;targetShapes=umlLifeline;portConstraint=eastwest;newEdgeStyle={&quot;edgeStyle&quot;:&quot;elbowEdgeStyle&quot;,&quot;elbow&quot;:&quot;vertical&quot;,&quot;curved&quot;:0,&quot;rounded&quot;:0};" vertex="1" parent="Az40gwPf_GK8AemMMeNt-47">
          <mxGeometry x="15" y="90" width="10" height="90" as="geometry" />
        </mxCell>
        <mxCell id="Az40gwPf_GK8AemMMeNt-52" value="klient" style="text;html=1;align=center;verticalAlign=middle;resizable=0;points=[];autosize=1;strokeColor=none;fillColor=none;" vertex="1" parent="1">
          <mxGeometry x="-25" y="60" width="50" height="30" as="geometry" />
        </mxCell>
        <mxCell id="Az40gwPf_GK8AemMMeNt-53" value="obsługa klienta&lt;div&gt;magazynu&lt;/div&gt;" style="text;html=1;align=center;verticalAlign=middle;resizable=0;points=[];autosize=1;strokeColor=none;fillColor=none;" vertex="1" parent="1">
          <mxGeometry x="130" y="60" width="100" height="40" as="geometry" />
        </mxCell>
        <mxCell id="Az40gwPf_GK8AemMMeNt-54" value="GUI" style="text;html=1;align=center;verticalAlign=middle;resizable=0;points=[];autosize=1;strokeColor=none;fillColor=none;" vertex="1" parent="1">
          <mxGeometry x="340" y="60" width="40" height="30" as="geometry" />
        </mxCell>
        <mxCell id="Az40gwPf_GK8AemMMeNt-55" value="dział jakości" style="text;html=1;align=center;verticalAlign=middle;resizable=0;points=[];autosize=1;strokeColor=none;fillColor=none;" vertex="1" parent="1">
          <mxGeometry x="475" y="65" width="90" height="30" as="geometry" />
        </mxCell>
        <mxCell id="Az40gwPf_GK8AemMMeNt-56" value="baza danych produktów&amp;nbsp;&lt;div&gt;w magazynie&lt;/div&gt;" style="text;html=1;align=center;verticalAlign=middle;resizable=0;points=[];autosize=1;strokeColor=none;fillColor=none;" vertex="1" parent="1">
          <mxGeometry x="620" y="65" width="150" height="40" as="geometry" />
        </mxCell>
        <mxCell id="Az40gwPf_GK8AemMMeNt-57" value="zgłoszenie reklamacji" style="html=1;verticalAlign=bottom;endArrow=block;edgeStyle=elbowEdgeStyle;elbow=vertical;curved=0;rounded=0;" edge="1" parent="1" source="Az40gwPf_GK8AemMMeNt-42" target="Az40gwPf_GK8AemMMeNt-45">
          <mxGeometry relative="1" as="geometry">
            <mxPoint x="30" y="130" as="sourcePoint" />
            <Array as="points">
              <mxPoint x="110" y="130" />
              <mxPoint x="50" y="160" />
            </Array>
          </mxGeometry>
        </mxCell>
        <mxCell id="Az40gwPf_GK8AemMMeNt-62" value="" style="html=1;points=[];perimeter=orthogonalPerimeter;outlineConnect=0;targetShapes=umlLifeline;portConstraint=eastwest;newEdgeStyle={&quot;edgeStyle&quot;:&quot;elbowEdgeStyle&quot;,&quot;elbow&quot;:&quot;vertical&quot;,&quot;curved&quot;:0,&quot;rounded&quot;:0};" vertex="1" parent="1">
          <mxGeometry x="355" y="110" width="10" height="90" as="geometry" />
        </mxCell>
        <mxCell id="Az40gwPf_GK8AemMMeNt-76" value="dział wysyłki" style="text;html=1;align=center;verticalAlign=middle;resizable=0;points=[];autosize=1;strokeColor=none;fillColor=none;" vertex="1" parent="1">
          <mxGeometry x="805" y="60" width="90" height="30" as="geometry" />
        </mxCell>
        <mxCell id="Az40gwPf_GK8AemMMeNt-79" value="" style="shape=umlLifeline;perimeter=lifelinePerimeter;whiteSpace=wrap;html=1;container=1;dropTarget=0;collapsible=0;recursiveResize=0;outlineConnect=0;portConstraint=eastwest;newEdgeStyle={&quot;edgeStyle&quot;:&quot;elbowEdgeStyle&quot;,&quot;elbow&quot;:&quot;vertical&quot;,&quot;curved&quot;:0,&quot;rounded&quot;:0};participant=umlControl;" vertex="1" parent="1">
          <mxGeometry x="830" y="10" width="40" height="990" as="geometry" />
        </mxCell>
        <mxCell id="Az40gwPf_GK8AemMMeNt-107" value="" style="html=1;points=[];perimeter=orthogonalPerimeter;outlineConnect=0;targetShapes=umlLifeline;portConstraint=eastwest;newEdgeStyle={&quot;edgeStyle&quot;:&quot;elbowEdgeStyle&quot;,&quot;elbow&quot;:&quot;vertical&quot;,&quot;curved&quot;:0,&quot;rounded&quot;:0};" vertex="1" parent="Az40gwPf_GK8AemMMeNt-79">
          <mxGeometry x="15" y="520" width="10" height="380" as="geometry" />
        </mxCell>
        <mxCell id="Az40gwPf_GK8AemMMeNt-81" value="" style="shape=umlLifeline;perimeter=lifelinePerimeter;whiteSpace=wrap;html=1;container=1;dropTarget=0;collapsible=0;recursiveResize=0;outlineConnect=0;portConstraint=eastwest;newEdgeStyle={&quot;edgeStyle&quot;:&quot;elbowEdgeStyle&quot;,&quot;elbow&quot;:&quot;vertical&quot;,&quot;curved&quot;:0,&quot;rounded&quot;:0};participant=umlBoundary;" vertex="1" parent="1">
          <mxGeometry x="670" y="10" width="50" height="990" as="geometry" />
        </mxCell>
        <mxCell id="Az40gwPf_GK8AemMMeNt-96" value="" style="html=1;points=[];perimeter=orthogonalPerimeter;outlineConnect=0;targetShapes=umlLifeline;portConstraint=eastwest;newEdgeStyle={&quot;edgeStyle&quot;:&quot;elbowEdgeStyle&quot;,&quot;elbow&quot;:&quot;vertical&quot;,&quot;curved&quot;:0,&quot;rounded&quot;:0};" vertex="1" parent="Az40gwPf_GK8AemMMeNt-81">
          <mxGeometry x="20" y="290" width="10" height="260" as="geometry" />
        </mxCell>
        <mxCell id="Az40gwPf_GK8AemMMeNt-83" value="" style="shape=umlLifeline;perimeter=lifelinePerimeter;whiteSpace=wrap;html=1;container=1;dropTarget=0;collapsible=0;recursiveResize=0;outlineConnect=0;portConstraint=eastwest;newEdgeStyle={&quot;edgeStyle&quot;:&quot;elbowEdgeStyle&quot;,&quot;elbow&quot;:&quot;vertical&quot;,&quot;curved&quot;:0,&quot;rounded&quot;:0};participant=umlControl;" vertex="1" parent="1">
          <mxGeometry x="970" y="10" width="40" height="990" as="geometry" />
        </mxCell>
        <mxCell id="Az40gwPf_GK8AemMMeNt-84" value="" style="html=1;points=[];perimeter=orthogonalPerimeter;outlineConnect=0;targetShapes=umlLifeline;portConstraint=eastwest;newEdgeStyle={&quot;edgeStyle&quot;:&quot;elbowEdgeStyle&quot;,&quot;elbow&quot;:&quot;vertical&quot;,&quot;curved&quot;:0,&quot;rounded&quot;:0};" vertex="1" parent="Az40gwPf_GK8AemMMeNt-83">
          <mxGeometry x="15" y="680" width="10" height="220" as="geometry" />
        </mxCell>
        <mxCell id="Az40gwPf_GK8AemMMeNt-85" value="dział księgowości&lt;div&gt;&amp;nbsp;magazynu&lt;/div&gt;" style="text;html=1;align=center;verticalAlign=middle;resizable=0;points=[];autosize=1;strokeColor=none;fillColor=none;" vertex="1" parent="1">
          <mxGeometry x="930" y="60" width="120" height="40" as="geometry" />
        </mxCell>
        <mxCell id="Az40gwPf_GK8AemMMeNt-86" value="wprowadzenie danych reklamacji" style="html=1;verticalAlign=bottom;endArrow=block;edgeStyle=elbowEdgeStyle;elbow=vertical;curved=0;rounded=0;" edge="1" parent="1" target="Az40gwPf_GK8AemMMeNt-62">
          <mxGeometry relative="1" as="geometry">
            <mxPoint x="185" y="130" as="sourcePoint" />
            <Array as="points">
              <mxPoint x="290" y="130" />
              <mxPoint x="230" y="160" />
            </Array>
            <mxPoint x="355" y="130" as="targetPoint" />
          </mxGeometry>
        </mxCell>
        <mxCell id="Az40gwPf_GK8AemMMeNt-87" value="weryfikacja reklamacji" style="html=1;verticalAlign=bottom;endArrow=block;edgeStyle=elbowEdgeStyle;elbow=vertical;curved=0;rounded=0;" edge="1" parent="1">
          <mxGeometry relative="1" as="geometry">
            <mxPoint x="365" y="130" as="sourcePoint" />
            <Array as="points">
              <mxPoint x="500" y="130" />
              <mxPoint x="440" y="160" />
            </Array>
            <mxPoint x="515" y="130" as="targetPoint" />
          </mxGeometry>
        </mxCell>
        <mxCell id="Az40gwPf_GK8AemMMeNt-88" value="wygenerowanie decyzji&amp;nbsp;&lt;div&gt;o zasadności reklamacji&lt;/div&gt;" style="html=1;verticalAlign=bottom;endArrow=open;dashed=1;endSize=8;edgeStyle=elbowEdgeStyle;elbow=vertical;curved=0;rounded=0;" edge="1" parent="1">
          <mxGeometry relative="1" as="geometry">
            <mxPoint x="365" y="170" as="targetPoint" />
            <Array as="points">
              <mxPoint x="430" y="170" />
              <mxPoint x="155" y="10" />
            </Array>
            <mxPoint x="515" y="170" as="sourcePoint" />
          </mxGeometry>
        </mxCell>
        <mxCell id="Az40gwPf_GK8AemMMeNt-89" value="wyświetlenie decyzji" style="html=1;verticalAlign=bottom;endArrow=open;dashed=1;endSize=8;edgeStyle=elbowEdgeStyle;elbow=vertical;curved=0;rounded=0;" edge="1" parent="1">
          <mxGeometry x="0.1282" relative="1" as="geometry">
            <mxPoint x="185" y="170" as="targetPoint" />
            <Array as="points">
              <mxPoint x="165" y="170" />
              <mxPoint x="-110" y="10" />
            </Array>
            <mxPoint x="355" y="195" as="sourcePoint" />
            <mxPoint as="offset" />
          </mxGeometry>
        </mxCell>
        <mxCell id="Az40gwPf_GK8AemMMeNt-90" value="potwierdzenie przyjęcia reklamacji" style="html=1;verticalAlign=bottom;endArrow=open;dashed=1;endSize=8;edgeStyle=elbowEdgeStyle;elbow=vertical;curved=0;rounded=0;" edge="1" parent="1" source="Az40gwPf_GK8AemMMeNt-45" target="Az40gwPf_GK8AemMMeNt-42">
          <mxGeometry x="0.0053" relative="1" as="geometry">
            <mxPoint x="40" y="280" as="targetPoint" />
            <Array as="points">
              <mxPoint x="85" y="280" />
              <mxPoint x="-190" y="120" />
            </Array>
            <mxPoint x="170" y="280" as="sourcePoint" />
            <mxPoint as="offset" />
          </mxGeometry>
        </mxCell>
        <mxCell id="Az40gwPf_GK8AemMMeNt-91" value="alt" style="shape=umlFrame;whiteSpace=wrap;html=1;pointerEvents=0;" vertex="1" parent="1">
          <mxGeometry x="-90" y="210" width="1210" height="710" as="geometry" />
        </mxCell>
        <mxCell id="Az40gwPf_GK8AemMMeNt-92" value="reklamacja przyjęta == true" style="text;html=1;align=center;verticalAlign=middle;resizable=0;points=[];autosize=1;strokeColor=none;fillColor=none;" vertex="1" parent="1">
          <mxGeometry x="-30" y="210" width="170" height="30" as="geometry" />
        </mxCell>
        <mxCell id="Az40gwPf_GK8AemMMeNt-94" value="" style="endArrow=open;endFill=1;endSize=12;html=1;rounded=0;" edge="1" parent="1" target="Az40gwPf_GK8AemMMeNt-42">
          <mxGeometry width="160" relative="1" as="geometry">
            <mxPoint x="175" y="330" as="sourcePoint" />
            <mxPoint y="330" as="targetPoint" />
          </mxGeometry>
        </mxCell>
        <mxCell id="Az40gwPf_GK8AemMMeNt-95" value="informacja o przygotowywaniu&amp;nbsp;&lt;div&gt;nowego towaru do wysyłki&lt;/div&gt;" style="text;html=1;align=center;verticalAlign=middle;resizable=0;points=[];autosize=1;strokeColor=none;fillColor=none;" vertex="1" parent="1">
          <mxGeometry y="290" width="190" height="40" as="geometry" />
        </mxCell>
        <mxCell id="Az40gwPf_GK8AemMMeNt-97" value="sprawdzenie, czy produkt znajduje się na stanie" style="html=1;verticalAlign=bottom;endArrow=block;edgeStyle=elbowEdgeStyle;elbow=vertical;curved=0;rounded=0;" edge="1" parent="1">
          <mxGeometry x="0.0005" relative="1" as="geometry">
            <mxPoint x="185" y="350" as="sourcePoint" />
            <Array as="points">
              <mxPoint x="375" y="350" />
              <mxPoint x="315" y="380" />
            </Array>
            <mxPoint x="690" y="350" as="targetPoint" />
            <mxPoint as="offset" />
          </mxGeometry>
        </mxCell>
        <mxCell id="Az40gwPf_GK8AemMMeNt-98" value="alt" style="shape=umlFrame;whiteSpace=wrap;html=1;pointerEvents=0;" vertex="1" parent="1">
          <mxGeometry x="-80" y="380" width="1170" height="110" as="geometry" />
        </mxCell>
        <mxCell id="Az40gwPf_GK8AemMMeNt-99" value="produkt na stanie == false" style="text;html=1;align=center;verticalAlign=middle;resizable=0;points=[];autosize=1;strokeColor=none;fillColor=none;" vertex="1" parent="1">
          <mxGeometry x="-30" y="380" width="160" height="30" as="geometry" />
        </mxCell>
        <mxCell id="Az40gwPf_GK8AemMMeNt-100" value="przekazanie informacji o braku produktu na stanie" style="html=1;verticalAlign=bottom;endArrow=open;dashed=1;endSize=8;edgeStyle=elbowEdgeStyle;elbow=vertical;curved=0;rounded=0;" edge="1" parent="1" target="Az40gwPf_GK8AemMMeNt-45">
          <mxGeometry x="0.1282" relative="1" as="geometry">
            <mxPoint x="100" y="420" as="targetPoint" />
            <Array as="points">
              <mxPoint x="220" y="420" />
              <mxPoint x="-195" y="260" />
            </Array>
            <mxPoint x="690" y="420" as="sourcePoint" />
            <mxPoint as="offset" />
          </mxGeometry>
        </mxCell>
        <mxCell id="Az40gwPf_GK8AemMMeNt-103" value="" style="endArrow=open;endFill=1;endSize=12;html=1;rounded=0;" edge="1" parent="1" target="Az40gwPf_GK8AemMMeNt-42">
          <mxGeometry width="160" relative="1" as="geometry">
            <mxPoint x="182.5" y="480" as="sourcePoint" />
            <mxPoint x="7.5" y="480" as="targetPoint" />
          </mxGeometry>
        </mxCell>
        <mxCell id="Az40gwPf_GK8AemMMeNt-104" value="przekazanie informacji o&lt;div&gt;&amp;nbsp;wydłużonym czasie oczekiwania&lt;/div&gt;&lt;div&gt;&amp;nbsp;ze względu na aktualny brak&lt;/div&gt;&lt;div&gt;&amp;nbsp;produktu w magazynie&lt;/div&gt;" style="text;html=1;align=center;verticalAlign=middle;resizable=0;points=[];autosize=1;strokeColor=none;fillColor=none;" vertex="1" parent="1">
          <mxGeometry x="-10" y="415" width="200" height="70" as="geometry" />
        </mxCell>
        <mxCell id="Az40gwPf_GK8AemMMeNt-105" value="produkt znajduje się na stanie" style="html=1;verticalAlign=bottom;endArrow=open;dashed=1;endSize=8;edgeStyle=elbowEdgeStyle;elbow=vertical;curved=0;rounded=0;" edge="1" parent="1" target="Az40gwPf_GK8AemMMeNt-45">
          <mxGeometry x="0.1282" relative="1" as="geometry">
            <mxPoint x="200" y="530" as="targetPoint" />
            <Array as="points">
              <mxPoint x="225" y="530" />
              <mxPoint x="-190" y="370" />
            </Array>
            <mxPoint x="695" y="530" as="sourcePoint" />
            <mxPoint as="offset" />
          </mxGeometry>
        </mxCell>
        <mxCell id="Az40gwPf_GK8AemMMeNt-108" value="polecenie wysyłki nowego towaru" style="html=1;verticalAlign=bottom;endArrow=block;edgeStyle=elbowEdgeStyle;elbow=vertical;curved=0;rounded=0;" edge="1" parent="1" source="Az40gwPf_GK8AemMMeNt-45" target="Az40gwPf_GK8AemMMeNt-107">
          <mxGeometry x="0.0005" relative="1" as="geometry">
            <mxPoint x="300" y="570" as="sourcePoint" />
            <Array as="points">
              <mxPoint x="490" y="570" />
              <mxPoint x="430" y="600" />
            </Array>
            <mxPoint x="805" y="570" as="targetPoint" />
            <mxPoint as="offset" />
          </mxGeometry>
        </mxCell>
        <mxCell id="Az40gwPf_GK8AemMMeNt-110" value="przekazanie informacji o skompletowaniu i wysyłce zamówienia" style="html=1;verticalAlign=bottom;endArrow=open;dashed=1;endSize=8;edgeStyle=elbowEdgeStyle;elbow=vertical;curved=0;rounded=0;" edge="1" parent="1">
          <mxGeometry x="0.1282" relative="1" as="geometry">
            <mxPoint x="185" y="609.9999999999998" as="targetPoint" />
            <Array as="points">
              <mxPoint x="340" y="610" />
              <mxPoint x="-415" y="450" />
            </Array>
            <mxPoint x="845" y="609.9999999999998" as="sourcePoint" />
            <mxPoint as="offset" />
          </mxGeometry>
        </mxCell>
        <mxCell id="Az40gwPf_GK8AemMMeNt-111" value="" style="endArrow=open;endFill=1;endSize=12;html=1;rounded=0;" edge="1" parent="1" target="Az40gwPf_GK8AemMMeNt-42">
          <mxGeometry width="160" relative="1" as="geometry">
            <mxPoint x="175" y="650" as="sourcePoint" />
            <mxPoint x="5" y="650" as="targetPoint" />
          </mxGeometry>
        </mxCell>
        <mxCell id="Az40gwPf_GK8AemMMeNt-112" value="poinformowanie o wysyłce" style="text;html=1;align=center;verticalAlign=middle;resizable=0;points=[];autosize=1;strokeColor=none;fillColor=none;" vertex="1" parent="1">
          <mxGeometry x="15" y="620" width="160" height="30" as="geometry" />
        </mxCell>
        <mxCell id="Az40gwPf_GK8AemMMeNt-114" value="prośba o potwierdzenie otrzymania przesyłki" style="html=1;verticalAlign=bottom;endArrow=block;edgeStyle=elbowEdgeStyle;elbow=vertical;curved=0;rounded=0;" edge="1" parent="1" source="Az40gwPf_GK8AemMMeNt-107" target="Az40gwPf_GK8AemMMeNt-42">
          <mxGeometry x="0.0005" relative="1" as="geometry">
            <mxPoint x="460" y="730" as="sourcePoint" />
            <Array as="points">
              <mxPoint x="765" y="730" />
              <mxPoint x="705" y="760" />
            </Array>
            <mxPoint x="1120" y="730" as="targetPoint" />
            <mxPoint as="offset" />
          </mxGeometry>
        </mxCell>
        <mxCell id="Az40gwPf_GK8AemMMeNt-115" value="potwierdzenie otrzymania przesyłki" style="html=1;verticalAlign=bottom;endArrow=open;dashed=1;endSize=8;edgeStyle=elbowEdgeStyle;elbow=vertical;curved=0;rounded=0;" edge="1" parent="1" source="Az40gwPf_GK8AemMMeNt-42" target="Az40gwPf_GK8AemMMeNt-107">
          <mxGeometry x="0.1282" relative="1" as="geometry">
            <mxPoint x="-240" y="790" as="targetPoint" />
            <Array as="points">
              <mxPoint x="150" y="790" />
              <mxPoint x="-615" y="630" />
            </Array>
            <mxPoint x="270" y="790" as="sourcePoint" />
            <mxPoint as="offset" />
          </mxGeometry>
        </mxCell>
        <mxCell id="Az40gwPf_GK8AemMMeNt-116" value="potwierdzenie odbioru&amp;nbsp;&lt;div&gt;przesyłki&lt;/div&gt;" style="html=1;verticalAlign=bottom;endArrow=block;edgeStyle=elbowEdgeStyle;elbow=vertical;curved=0;rounded=0;" edge="1" parent="1">
          <mxGeometry x="0.0018" relative="1" as="geometry">
            <mxPoint x="855" y="830" as="sourcePoint" />
            <Array as="points">
              <mxPoint x="856" y="830" />
              <mxPoint x="796" y="860" />
            </Array>
            <mxPoint x="985.0000000000005" y="830" as="targetPoint" />
            <mxPoint as="offset" />
          </mxGeometry>
        </mxCell>
        <mxCell id="Az40gwPf_GK8AemMMeNt-117" value="aktualizacja faktury&amp;nbsp;&lt;div&gt;w księgowości&lt;/div&gt;" style="html=1;verticalAlign=bottom;endArrow=open;dashed=1;endSize=8;edgeStyle=elbowEdgeStyle;elbow=vertical;curved=0;rounded=0;" edge="1" parent="1" source="Az40gwPf_GK8AemMMeNt-84" target="Az40gwPf_GK8AemMMeNt-107">
          <mxGeometry x="-0.0075" relative="1" as="geometry">
            <mxPoint x="849.4473684210529" y="880" as="targetPoint" />
            <Array as="points">
              <mxPoint x="920" y="880" />
              <mxPoint x="320" y="720" />
            </Array>
            <mxPoint x="989.5000000000005" y="880" as="sourcePoint" />
            <mxPoint as="offset" />
          </mxGeometry>
        </mxCell>
        <mxCell id="Az40gwPf_GK8AemMMeNt-118" value="przekazanie informacji&amp;nbsp;&lt;div&gt;o odrzuceniu reklamacji&lt;/div&gt;" style="html=1;verticalAlign=bottom;endArrow=open;dashed=1;endSize=8;edgeStyle=elbowEdgeStyle;elbow=vertical;curved=0;rounded=0;" edge="1" parent="1" source="Az40gwPf_GK8AemMMeNt-44" target="Az40gwPf_GK8AemMMeNt-42">
          <mxGeometry x="-0.0048" relative="1" as="geometry">
            <mxPoint x="-1" y="955" as="targetPoint" />
            <Array as="points">
              <mxPoint x="80" y="955" />
              <mxPoint x="-335" y="795" />
            </Array>
            <mxPoint x="130" y="980" as="sourcePoint" />
            <mxPoint as="offset" />
          </mxGeometry>
        </mxCell>
      </root>
    </mxGraphModel>
  </diagram>
</mxfile>
